<mxfile host="Electron" modified="2024-04-01T15:18:45.179Z" agent="Mozilla/5.0 (X11; Linux x86_64) AppleWebKit/537.36 (KHTML, like Gecko) draw.io/24.1.0 Chrome/120.0.6099.109 Electron/28.1.0 Safari/537.36" etag="YKpWzuhjyK11zvTPQ2ll" version="24.1.0" type="device">
  <diagram name="Page-1" id="oyVFm8reez0qMdVVHQkH">
    <mxGraphModel dx="1195" dy="703" grid="1" gridSize="10" guides="1" tooltips="1" connect="1" arrows="1" fold="1" page="1" pageScale="1" pageWidth="850" pageHeight="1100" math="0" shadow="0">
      <root>
        <mxCell id="0" />
        <mxCell id="1" parent="0" />
        <mxCell id="3dCnoPwf7dHzqVoxYh37-12" value="Evaluation Summary" style="shape=note2;boundedLbl=1;whiteSpace=wrap;html=1;size=13;verticalAlign=top;align=center;" vertex="1" parent="1">
          <mxGeometry x="230" y="470" width="120" height="40" as="geometry" />
        </mxCell>
        <mxCell id="3dCnoPwf7dHzqVoxYh37-42" value="" style="rounded=1;whiteSpace=wrap;html=1;strokeColor=none;" vertex="1" parent="1">
          <mxGeometry x="330" y="453" width="30" height="30" as="geometry" />
        </mxCell>
        <mxCell id="3dCnoPwf7dHzqVoxYh37-7" style="edgeStyle=orthogonalEdgeStyle;rounded=0;orthogonalLoop=1;jettySize=auto;html=1;entryX=0;entryY=0.5;entryDx=0;entryDy=0;" edge="1" parent="1" source="3dCnoPwf7dHzqVoxYh37-1" target="3dCnoPwf7dHzqVoxYh37-5">
          <mxGeometry relative="1" as="geometry" />
        </mxCell>
        <mxCell id="3dCnoPwf7dHzqVoxYh37-8" style="edgeStyle=orthogonalEdgeStyle;rounded=0;orthogonalLoop=1;jettySize=auto;html=1;entryX=0;entryY=0.5;entryDx=0;entryDy=0;" edge="1" parent="1" source="3dCnoPwf7dHzqVoxYh37-1" target="3dCnoPwf7dHzqVoxYh37-3">
          <mxGeometry relative="1" as="geometry" />
        </mxCell>
        <mxCell id="3dCnoPwf7dHzqVoxYh37-1" value="Simulator" style="html=1;whiteSpace=wrap;fillColor=#d5e8d4;strokeColor=#82b366;" vertex="1" parent="1">
          <mxGeometry x="230" y="270" width="110" height="50" as="geometry" />
        </mxCell>
        <mxCell id="3dCnoPwf7dHzqVoxYh37-9" style="edgeStyle=orthogonalEdgeStyle;rounded=0;orthogonalLoop=1;jettySize=auto;html=1;entryX=0;entryY=0.5;entryDx=0;entryDy=0;" edge="1" parent="1" source="3dCnoPwf7dHzqVoxYh37-2" target="3dCnoPwf7dHzqVoxYh37-5">
          <mxGeometry relative="1" as="geometry" />
        </mxCell>
        <mxCell id="3dCnoPwf7dHzqVoxYh37-15" value="Inputs and&amp;nbsp;&lt;div&gt;Ground-Truths&lt;/div&gt;" style="edgeLabel;html=1;align=center;verticalAlign=middle;resizable=0;points=[];" vertex="1" connectable="0" parent="3dCnoPwf7dHzqVoxYh37-9">
          <mxGeometry x="0.0481" relative="1" as="geometry">
            <mxPoint as="offset" />
          </mxGeometry>
        </mxCell>
        <mxCell id="3dCnoPwf7dHzqVoxYh37-10" style="edgeStyle=orthogonalEdgeStyle;rounded=0;orthogonalLoop=1;jettySize=auto;html=1;entryX=0;entryY=0.5;entryDx=0;entryDy=0;" edge="1" parent="1" source="3dCnoPwf7dHzqVoxYh37-2" target="3dCnoPwf7dHzqVoxYh37-3">
          <mxGeometry relative="1" as="geometry" />
        </mxCell>
        <mxCell id="3dCnoPwf7dHzqVoxYh37-2" value="Mocker Node" style="html=1;whiteSpace=wrap;fillColor=#d5e8d4;strokeColor=#82b366;" vertex="1" parent="1">
          <mxGeometry x="230" y="360" width="110" height="50" as="geometry" />
        </mxCell>
        <mxCell id="3dCnoPwf7dHzqVoxYh37-11" style="edgeStyle=orthogonalEdgeStyle;rounded=0;orthogonalLoop=1;jettySize=auto;html=1;entryX=0.5;entryY=0;entryDx=0;entryDy=0;" edge="1" parent="1" source="3dCnoPwf7dHzqVoxYh37-3" target="3dCnoPwf7dHzqVoxYh37-4">
          <mxGeometry relative="1" as="geometry" />
        </mxCell>
        <mxCell id="3dCnoPwf7dHzqVoxYh37-3" value="Evaluator" style="html=1;whiteSpace=wrap;fillColor=#d5e8d4;strokeColor=#82b366;" vertex="1" parent="1">
          <mxGeometry x="470" y="360" width="110" height="50" as="geometry" />
        </mxCell>
        <mxCell id="3dCnoPwf7dHzqVoxYh37-4" value="Foxglove" style="html=1;whiteSpace=wrap;fillColor=#9F87ED;strokeColor=#706CA6;" vertex="1" parent="1">
          <mxGeometry x="470" y="460" width="110" height="50" as="geometry" />
        </mxCell>
        <mxCell id="3dCnoPwf7dHzqVoxYh37-5" value="System" style="html=1;whiteSpace=wrap;" vertex="1" parent="1">
          <mxGeometry x="470" y="270" width="110" height="50" as="geometry" />
        </mxCell>
        <mxCell id="3dCnoPwf7dHzqVoxYh37-14" style="edgeStyle=orthogonalEdgeStyle;rounded=0;orthogonalLoop=1;jettySize=auto;html=1;entryX=0;entryY=0;entryDx=120;entryDy=26.5;entryPerimeter=0;exitX=0.5;exitY=1;exitDx=0;exitDy=0;endArrow=open;endFill=0;" edge="1" parent="1" source="3dCnoPwf7dHzqVoxYh37-3" target="3dCnoPwf7dHzqVoxYh37-12">
          <mxGeometry relative="1" as="geometry">
            <Array as="points">
              <mxPoint x="525" y="440" />
              <mxPoint x="410" y="440" />
              <mxPoint x="410" y="497" />
            </Array>
          </mxGeometry>
        </mxCell>
        <mxCell id="3dCnoPwf7dHzqVoxYh37-19" value="Metrics" style="edgeLabel;html=1;align=center;verticalAlign=middle;resizable=0;points=[];" vertex="1" connectable="0" parent="3dCnoPwf7dHzqVoxYh37-14">
          <mxGeometry x="-0.9057" y="1" relative="1" as="geometry">
            <mxPoint as="offset" />
          </mxGeometry>
        </mxCell>
        <mxCell id="3dCnoPwf7dHzqVoxYh37-20" value="" style="shape=image;verticalLabelPosition=bottom;labelBackgroundColor=default;verticalAlign=top;aspect=fixed;imageAspect=0;image=https://upload.wikimedia.org/wikipedia/commons/thumb/c/c3/Python-logo-notext.svg/1869px-Python-logo-notext.svg.png;" vertex="1" parent="1">
          <mxGeometry x="570" y="340.00000000000006" width="33.87" height="37.12" as="geometry" />
        </mxCell>
        <mxCell id="3dCnoPwf7dHzqVoxYh37-21" value="" style="shape=image;verticalLabelPosition=bottom;labelBackgroundColor=default;verticalAlign=top;aspect=fixed;imageAspect=0;image=https://foxglove.dev/images/logo-icon-round.png;" vertex="1" parent="1">
          <mxGeometry x="570" y="440" width="40" height="40" as="geometry" />
        </mxCell>
        <mxCell id="3dCnoPwf7dHzqVoxYh37-23" value="" style="shape=image;verticalLabelPosition=bottom;labelBackgroundColor=default;verticalAlign=top;aspect=fixed;imageAspect=0;image=data:image/png,iVBORw0KGgoAAAANSUhEUgAAAgAAAAIACAYAAAD0eNT6AAAAAXNSR0IArs4c6QAAIABJREFUeAHtndvvbddV30dKfE4QuVCLSJCivpBC5ctDFbWIPqRSKCSBpFL/BYRAQY1IKe0zj5TIji0fbKmJqtKXplykClUqii8UpbwBSXpsQZoEQ9QCSUgiXx7qxk7rUZ9t/X5Lc++5xhpj3j9b+mn/1pq3MT7jO8ece+291xbhAQEIQAACEIAABCAAAQhAAAIQgAAEIAABCEAAAhCAAAQgAAEIQAACEIAABCAAAQhAAAIQgAAEIAABCEAAAhCAAAQgAAEIQAACEIAABCAAAQhAAAIQgAAEIAABCEAAAhCAAAQgAAEIQAACEIAABCAAAQhAAAIQgAAEIAABCEAAAhCAAAQgAAEIQAACEIAABCAAAQhAAAIQgAAEIAABCEAAAhCAAAQgAAEIQAACEIAABPoi8HYR+XER+WcicktEHheRz4nIl0TkGyLykoj8X/5ggAaG1cCLIvK0iHxMRO7pK/1gDQQgUJPAd4rIB+8kA13ov01iHzaxszFjc2rVwMsi8oiI3KiZdBgLAhBoR+ANIvJuEfmEiDzHgs+CjwaW18Dvisib26UkRoYABEoTuCkiPysiXyThL5/wra8UqT//1YVPswkonYLpHwL1Cehl/n8uIv+LhZ+FHw2ggQsaYBNQPz8zIgSKEfiAiPzphQnPK7v5X9kRY2Js0cDvi8hbimUkOoYABIoT+Nsi8p9Y+Hm1hwbQwAENcCWgeIpmAAiUIfBPROTrBya95VUCdXlViQbm1gBXAsrkZ3qFQBECbxSRX+arfLziY/OHBoI0wCagSKqmUwjEEvibIvLfgiY9r+zmfmVHfImvRQO8HRCbq+kNAqEEvk9EPsviz6s+NIAGCmmAKwGhKZvOIBBD4O+IyJ8VmvSWVwnU5VUlGphbA1wJiMnZ9AKBEALvEJFnWfx51YcG0EAlDXAlICR10wkEfATexmV/kn6lpM8r+7lf2VvjyybAl7tpDQEXAf3hDj7wR1K2Jm7qo5koDfB2gCuF0xgCxwk8zCs/Xv2jATTQWANcCTiew2kJgUME/mml7/n/lYh8UkQ+IiLvFZEfFBH9qiE/G3oobDSCQDUCUa/y9/TDlYBqYWWg1Qno7X2/UXDXr3cPvCUi/0BE9CeDeUAAAuMR2LNwR9ZhEzCeRrB4QAKl7u2vvxKovxb4XQMywWQIQOA6gcjFfW9fbAKux4AjCIQSeF+BV/7fevWyvn6egF/+Cg0VnUGgKYG9i3Z0PT4T0DTsDD4rge8s8JO+/0NE/t6swPALAgsTiF7YLf1xJWBh4eF6GQJ6ed4yCXN19a2Et5YxlV4hAIHGBHLzv3Q5m4DGAmD4eQjcFJH/GbgB+Hcior8ayAMCEJiTQOkFfk//vB0wp7bwqjKBnw1c/D/Op/srR4/hIFCfwJ4FukYdrgTUjz0jTkRAv4r3xaANgF72/46J2OAKBCCQJlBjcd87BpuAdIw4C4EsgX8UtPh/gff8s6ypAIFZCOxdnGvV4+2AWZSFH1UJfCJgA/B/+LR/1ZgxGARaE6i1sFvG4UpAa1Uw/lAE9Kt/zwVsAH5lKK8xFgIQ8BKwLMypurpYp857z7EJ8EaW9ssQ+GDAJNQ7/L15GWI4CgEIKAHvQq05g00AWoJAQwIfC5jIev8AHhCAwFoEvBsApaW3Bf/dgByUsoXPBKylR7w9QOBzzsmnP+zDvf0PgKcJBAYnkFp0LedO7nMl4ESCZwhUJPD2gJ/81V/14wEBCKxHwLLYp+peJcYm4CoN/odABQI/7nz1r5Naf9KXBwQgsB6B1KJuObclxiZgS4RjCBQk8GHnBuAr3PGvYHToGgJ9E7As9qm6Ke/4TECKCucgUICAXr5PTcy95/5DAZvoEgIQGIPA3jxxrt45L9kEnCPDeQgEEviUcwPwkUBb6AoCEBiLwLmFfe/5S97ydsAlOpRBIIDAbecG4L0BNtAFBCAwJoG9C/25ejmvuRKQI0Q5BBwEnnVuAH7AMTZNIQCBsQmcW9j3nt/jPVcC9lCiDgQOENDv8O+drKl6dx8YkyYQgMAcBFI5wXJuLwWuBOwlRT0IGAi85NwA3DCMRVUIQGAuApbFPlXXQoNNgIUWdSGwg0BqUlrO7RiCKhCAwKQELLkiVdeKhU2AlRj1IXCBQGpSWs5d6JoiCEBgcgKWXJGqewQPm4Aj1GgDgQSB1KS0nEt0ySkIQGARApZckap7FBObgKPkaAeBKwRSk9Jy7kpX/AsBCCxGwJIrUnU9uNgEeOjRFgLODwDqhOYBAQisSyC1qFvOecmxCfASpP3SBCyTNVV3aXg4D4HFCaRyguVcBD42AREU6WNJApbJmqq7JDSchgAE/j+BVE6wnIvCyCYgiiT9LEXAMllTdZeChbMQgMA1AqmcYDl3rTPnAZsAJ0Car0fAMllTddcjhscQgMCJQConWM6d+ol6ZhMQRZJ+liBgmaypuktAwkkIQCBJIJUTLOeSnTpPsglwAqT5OgQskzVVdx1SeAoBCGwJpHKC5dy2v6hjNgFRJOlnagKWyZqqOzUcnIMABC4SSOUEy7mLnTsL2QQ4AdJ8fgKWyZqqOz8hPIQABM4RSOUEy7lz/UadZxMQRZJ+piRgmaypulNCwSkIQGAXgVROsJzbNYizEpsAJ0Caz0vAMllTdeclg2cQgECOQConWM7l+o8qZxMQRZJ+piJgmaypulPBwBkIQMBEIJUTLOdMgzkrswlwAqT5fAQskzVVdz4ieAQBCOwlkMoJlnN7x4mqxyYgiiT9TEHAMllTdaeAgBMQgMAhAqmcYDl3aFBnIzYBToA0n4eAZbKm6s5DAk8gAAErgVROsJyzjhdVn01AFEn6GZqAZbKm6g7tPMZDAAIuAqmcYDnnGtzZmE2AEyDNxydgmaypuuMTwAMIQOAogVROsJw7Om5UOzYBUSTpZ0gClsmaqjuk0xgNAQiEEEjlBMu5ECOcnbAJcAKk+bgELJM1VXdcz7EcAhDwEkjlBMs57/hR7dkERJGkn6EIWCZrqu5QzmIsBCAQSiCVEyznQo1xdsYmwAmQ5uMRsEzWVN3xPMZiCEAgikAqJ1jORdkR1Q+bgCiS9DMEActkTdUdwkmMhAAEihBI5QTLuSJGOTtlE+AESPNxCFgma6ruOJ5iKQQgEE0glRMs56LtieqPTUAUSfrpmoBlsqbqdu0cxkEAAkUJpHKC5VxR45ydswlwAqR5/wQskzVVt38PsRACEChFIJUTLOdK2RXVL5uAKJL00yUBy2RN1e3SKYyCAASqEEjlBMu5KkY6B2ET4ARI834JWCZrqm6/nmEZBCBQmkAqJ1jOlbYvqn82AVEk6acrApbJmqrblTMYAwEIVCWQygmWc1WNdQ7GJsAJkOb9EbBM1lTd/jzCIghAoBaBl0QklRf2nrtRy9CgcdgEBIGkmz4I7J2o5+r14QVWQAACLQh83bkBuLuF0c4x2QQ4AdK8HwLnFva95/vxBEsgAIHaBJ51bgDeWdvgoPHeLCKfdvp+Lsdqv9o/DwgUJ3BOhHvPFzeQASAAgW4J3HYugu/r1rO8YVwJyDOiRucE9i705+p17h7mQQACBQl8yrkB+EhB22p0zZWAGpQZoxiBcwv73vPFDKNjCECgewK3nBuAT3bvYd5ArgTkGVGjUwJ7F/pz9Tp1C7MgAIEKBD7s3AB8RUTeUMHO0kOwCShNmP6LEDi3sO89X8QoOoUABIYg8GPODYDmmR8ewtO8kbwdkGdEjc4I7F3oz9XrzB3MgQAEKhL4HhF5xbkJ+NWK9pYeik1AacL0H0rg3MK+93yoMXQGAQgMR+Czzg2A3ktgpq+9sQkYTsLrGrx3oT9Xb11yeA4BCCiBB50bAM0tvzAZSj4TMFlAZ3Xn3MK+9/ysXPALAhDYR+ADARuAv5jsKoCS40rAPv1QqyGBvQv9uXoNTWdoCECgAwJvEpFvBmwCPtqBL9EmcCUgmij9hRI4t7DvPR9qDJ1BAAJDEvh4wAbgWyLyriG9v2w0VwIu86G0IYG9C/25eg1NZ2gIQKATAu8O2ABojvmiiLytE58izeBKQCRN+gojcG5h33s+zBA6ggAEhiWgN/P5QtAm4LdF5I3DkjhvOFcCzrOhpBGBvQv9uXqNzGZYCECgMwI/E7QB0FzziUnuELgNEZuALRGOmxI4t7DvPd/UeAaHAAS6IXCXiPx54Cbg1ya9EsDbAd1IFkP2LvTn6kEQAhCAwInAzwduADTn6NsBM34mgCsBJ8Xw3JTAuYV97/mmxjM4BCDQFQH9SqB+kG9v/thTT/vj2wE2pp+e8L4KXQl9FmP2TMBLdWbhgB8QgEAMgfcGbwA0/+hXBB9+9a6Db40xsZteeDugm1CsacilxX1P2ZrU8BoCELhE4LcKbAI0H/2liPziZK9ueTvgkpIoK0pgzyJ/qU5R4+gcAhAYksD3i4j+yM+l3OEp+4aI6K8I/sgk3xZgEzCkzMc32jMJtS0PCEAAAikCHxSRbxfcBJxy11dF5Nfv/KDQT4jID4mI/kzxzZRRHZ9jE9BxcGY17TSJjj73xuX+O+8VPv3qpcIXKySfo9xWaacx0Fg8JCL39SYW7ClO4AHmYLGrINYc8vsi8pbiEWeAoQhYRbSt34uzutt/VEReIeF0k3C2Wnn51Vdmt0TkRi+iwY7iBPTeAL/HnOxmTvLtgOKSH2uAbZK2HvfgrS7+T5FkukkyOQ09ySagh2lTzYbvFpHPMT+7mZ//lflXTfvdD5RL1rnyHhx8jOTSTXLJ6eVU/kgPwsGGagTeISLPMk+7mafMv2rS73ugU0I++tzaO33Pn8v+5T5tfVQXuXb6dsC9rcXD+FUJvJNNQDcbAOZfVen3O1guUefKW3umNwfJ2Uh5n4webC0exq9O4HtF5DPM2S5y1seqR58BuyPgXRxbO/QMyaSLZHJER7dbi4fxmxDQzwTwwcD2m3L9dg6PxQkcSdxX27TG9wIbgGE3AM+3Fg/jNyPwxldH/iXevms6dzV38licwNXF/Mj/rfHpInLEbtq05/Zca/EwfnMCerOgkncMZJ5fnufNBYABbQl4J0hb60V4C+DyBPfGt2R73gJoPXv6GF9vG/ybbOSbvJDpQwFY0YyAN8E3M/zOwHqHOa8PtG/DUO8SxwMCJwLvEZE/Zj5XzWcn9jwvSsC7+LXGpreX1a+0eP2gfV2GGrN7WouH8bsj8KZX3xL4sIh8mTldJad1JwAMqkvAu/DVtTY9mt5e1usH7esy1K9v8oDAOQJ6u+ifFpHPM7eL5rZz/Dm/CAHvwtcDJk0WT5AoiiYKr06utn9cRPQe8TwgsIfAu+78wNfXmOPhc3wPf+pMTOBqYj7yfy9odBOgt7fk7YC6r+QtmtHY6Ct/Fv9eZs1YdujbA+8XkY+KyB/yFcKQzcBYCsDacAKWBJ6qG26Qs0O9vazeYU4/Yc49AtpvBjQGGgv9wB/v+TvFTfNrBO4WkR8VkQ/d2Vj+joj8kYh8SUT+WkRe4opBdpNwDSgH6xFILeqWc+sRw2MIQAACfRCw5OpU3T68wIpmBFKisJxrZjgDQwACEFicgCVXp+oujg/3U6KwnIMgBCAAAQi0IWDJ1am6baxm1G4IpERhOdeNIxgCAQhAYDECllydqrsYLtzdEkiJwnJu2x/HEIAABCBQh4AlV6fq1rGSUbolkBKF5Vy3jmEYBCAAgckJWHJ1qu7keHAvRyAlCsu5XP+UQwACEIBAGQKWXJ2qW8Yqeh2GQEoUlnPDOIqhEIAABCYjYMnVqbqT4cAdK4GUKCznrONRHwIQgAAEYghYcnWqbowV9DIsgZQoLOeGdRzDIQABCAxOwJKrU3UHdx/zvQRSorCc845PewhAAAIQOEbAkqtTdY+NSqtpCKREYTk3DQgcgQAEIDAYAUuuTtUdzF3MjSaQEoXlXLQ99AcBCEAAAvsIWHJ1qu6+Uag1LYGUKCznpgWDYxCAAAQ6J2DJ1am6nbuHeaUJpERhOVfaPvqHAAQgAIE0AUuuTtVN98rZZQikRGE5twwoHIUABCDQGQFLrk7V7cwdzKlNICUKy7na9jIeBCAAAQi8RsCSq1N14bg4gZQoLOcWx4f7EIAABJoRsOTqVN1mhjNwHwRSorCc68MLrIAABCCwHgFLrk7VXY8YHl8jkBKF5dy1zjiAAAQgAIFqBCy5OlW3mqEM1CeBlCgs5/r0CqsgAAEIzE/AkqtTdecnhIcXCaREYTl3sXMKIQABCECgGAFLrk7VLWYYHY9BICUKy7kxvMRKCEAAAvMRsOTqVN35iOCRiUBKFJZzpsGoDAEIQAACYQQsuTpVN8wQOhqTQEoUlnNjeo3VEIAABMYnYMnVqbrjE8ADF4GUKCznXIPTGAIQgAAEDhOw5OpU3cMD03AOAilRWM7NQQEvIAABCIxHwJKrU3XH8xiLQwmkRGE5F2oMnUEAAhCAwG4Cllydqrt7ICrOSSAlCsu5OangFQQgAIH+CVhydapu/x5iYVECKVFYzhU1js4hAAEIQOAsAUuuTtU92zEFaxBIicJybg1KeAkBCECgPwKWXJ2q259HWFSVQEoUlnNVjWUwCEAAAhB4nYAlV6fqvt4R/6xJICUKy7neqN0vIg+LyNMi8qKIWHzpsa76oL48JCL3VYA9G78eY4pN48zL2vPPOsW9WrKOR/3JCMwioJsi8qiIvDLBon8uJi+LyC0RuVFAgyvwO8eV8+MsyC1jVXL+HZ3SXh5Hx6XdJARmEJAuXk9NvPBvY/Rk8CZgNX5bnhyzAbBoIHr+eZYSi92pup6xaTsBgZQoLOd6QPDYQov/KTaPBIJfkd+JI88s/kc0EDn/PFP5iO1X23jGpu0EBK6K4cj/rRHoe9YzX/Y/FxO9HHlvAPxV+Z3jynk2BHs0EDX/vFN4j62X6njHp/3gBC6JY09Za/f1A3977JyxzoMB8FfmN6Mm8KlePoiYf94p7I23d3zaD05gdAE9s/AG4HaA9lbm59U+7esttj2yjph/3ins5eIdn/aDExhdQC8svAF4PkB7K/Pzap/2a28AIuafdwp7Negdn/aDExhdQDoJvT6M2v65AO2tzG/UuGN3H3M+Yv55p7BXC97xaT84gdEFtPIl7IhLkCvz82qf9n0sxK3iEDH/vMuH13fv+LQfnMDoAtI75Hl9GLX9AwHaW5nfqHHH7j7mfMT8805hrxa849N+cAKjC0hvj6tfyfH6MVp79fmeAO2tym+0eGNvX3M8av55p7BXF97xaT84gRkEpLfH9foxWnv9+l7UY0V+o8Ube/ua45HzzzOPvbrwjE3bCQjMICC9N/4TC20CHheRuwK1txo/r+Zp39diXDse0fPPM5W9vnvGpu0EBGYRkC5ienvOmd8OUN/0lUfk4n+S8Ar8vFqn/doLf8n5d5qH1mevJq3jUX8yArMJSG+Pq3fo0k/ozvAdd/VBfdEPHEW855+T72z8vPqm/dqLfu35l5uf23KvPrf9cbwYAQS0WMBxFwIQmIYA+XuaULZxBAG14c6oEIAABLwEyN9egou3R0CLCwD3IQCBYQmQv4cNXR+GI6A+4oAVEIAABKwEyN9WYtS/RgABXcPBAQQgAIFhCJC/hwlVn4YioD7jglUQgAAEcgTI3zlClF8kgIAu4qEQAhCAQLcEyN/dhmYMwxDQGHHCSghAAAJbAuTvLRGOTQQQkAkXlSEAAQh0Q4D83U0oxjQEAY0ZN6yGAAQgQP5GAy4CCMiFj8YQgAAEmhEgfzdDP8fACGiOOOIFBCCwHgHy93oxD/UYAYXipDMIQAAC1QiQv6uhnnMgBDRnXPEKAhCYnwD5e/4YF/UQARXFS+cQgAAEihEgfxdDu0bHCGiNOOMlBCAwHwHy93wxreoRAqqKm8EgAAEIhBEgf4ehXLMjBLRm3PEaAhAYnwD5e/wYNvUAATXFz+AQgAAEDhMgfx9GR0MlgIDQAQQgAIExCZC/x4xbN1YjoG5CgSEQgAAETATI3yZcVN4SQEBbIhxDAAIQGIMA+XuMOHVrJQLqNjQYBgEIQOAiAfL3RTwU5gggoBwhyiEAAQj0SYD83WdchrEKAQ0TKgyFAAQgcI0A+fsaDg6sBBCQlRj1IQABCPRBgPzdRxyGtQIBDRs6DIcABBYnQP5eXABe9xGQlyDtIQABCLQhQP5uw32aURHQNKHEEQhAYDEC5O/FAh7tLgKKJkp/EIAABOoQIH/X4TztKAho2tDiGAQgMDkB8vfkAS7tHgIqTZj+IQABCJQhQP4uw3WZXmcT0P0i8rCIPC0iLwb82JGXD+39Pzg1MkPVoGrxIRG5r0JWQf+xeqsdP6tEvHPDOh71JyMwi4BuisijIvIKi777Fx69mqB9ehF6WURuiciNAjkE/aeZR2qxZPyOSsLr39FxaTcJgRkEpMnvKRZ+Fv5BNPBk8CYA/Zdf/K/myej4eZaSq3Yd+d8zNm0nIHBENFfb9IDgsUES/1Vu/F83affG+5HAiYP+62spMn4eKXh17RmbthMQGF1A+p4nl/3rJ0CvblZvr5eT7w3IH+i/jfaj4ueVgHceecen/eAERheQfuDP6wPtYdhCAw8G5A703067EfHzSsCrW+/4tB+cwOgCeoYNABugQTVwOyB3oP92G4CI+HklMHr+9vpPeyeB0QX0wqDJ38ud9u0SfxT7551zV5uj/3Y6iIifVwJeLXrHp/3gBEYXkE5Crw+0h2ELDTwXkDvQfzvtRsTPKwGvbr3j035wAqMLiEug7RKgVzurt4+4hIz+2+k/In7e5cM7h7zj035wAqMLSO+w5vWB9jBsoYEHAnIH+m+n3Yj4eSXg1a13fNoPTmB0AentVfUrOV4/aA/DmhpQzd4TkDvQfxvdRsXPKwGvZr3j035wAjMISG+v6vWD9jCsqQH9+l7UA/3X125k/Dw68GrWMzZtJyAwg4D03upPsAlgEzSIBh4XkbsCcwf6r7sBiI6fRwoz5G+P/7R1EphFQJoE9facvB1QNxl69bNSe9WmvnKMXPxP0x/9l9d9yfid4mh99s4f63jUn4zAbALS26vqHbr0E7p8R7p8UvTqZ/b2qkHVon5gLOI9/1z6Qf+xmq8dv1x8t+Xe+bPtj+PFCCCgxQKOuxCAwDQEyN/ThLKNIwioDXdGhQAEIOAlQP72Ely8PQJaXAC4DwEIDEuA/D1s6PowHAH1EQesgAAEIGAlQP62EqP+NQII6BoODiAAAQgMQ4D8PUyo+jQUAfUZF6yCAAQgkCNA/s4RovwiAQR0EQ+FEIAABLolQP7uNjRjGIaAxogTVkIAAhDYEiB/b4lwbCKAgEy4qAwBCECgGwLk725CMaYhCGjMuGE1BCAAAfI3GnARQEAufDSGAAQg0IwA+bsZ+jkGRkBzxBEvIACB9QiQv9eLeajHCCgUJ51BAAIQqEaA/F0N9ZwDIaA544pXEIDA/ATI3/PHuKiHCKgoXjqHAAQgUIwA+bsY2jU6RkBrxBkvIQCB+QiQv+eLaVWPEFBV3AwGAQhAIIwA+TsM5ZodIaA1447XEIDA+ATI3+PHsKkHCKgpfgaHAAQgcJgA+fswOhoqAQSEDiAAAQiMSYD8PWbcurEaAXUTCgyBAAQgYCJA/jbhovKWAALaEuEYAhCAwBgEyN9jxKlbKxFQt6HBMAhAAAIXCZC/L+KhMEcAAeUIUQ4BCECgTwLk7z7jMoxVCGiYUGEoBCAAgWsEyN/XcHBgJYCArMSoDwEIQKAPAuTvPuIwrBUIaNjQYTgEILA4AfL34gLwuo+AvARpDwEIQKANAfJ3G+7TjIqApgkljkAAAosRIH8vFvBodxFQNFH6gwAEIFCHAPm7DudpR0FA04YWxyAAgckJkL8nD3Bp9xBQacL0DwEIQKAMAfJ3Ga7L9DqbgO4XkYdF5GkReTHgx468fFZvrzHQWDwkIvdVmFXE3/8DX6tr9qr/tfVrnSJXbT3yv3U86k9G4IhorrbpBcdNEXlURF5h0Xf/wuPV+Eb+/7KI3BKRGwVEQ/xZ+CO1muqrpH6PTomUnZZzR8el3SQELGJJ1e0Bgyb/p1j4u134t7p5MngTQPxZ/LcaK3kcrV9PDvX66RmbthMQmEFAj7H4D7P4n/T2SODcIf5sAE66qvUcqV/PVPD66xmbthMQGF1A+p4vl/3HWwD0cuq9AfOH+I8Xe2/O6aF9lH69U8DLwjs+7QcnMLqA9AN/Xh9o34bhgwFzh/i3iR1zRiRCv94p4I2Dd3zaD05gdAE9wwZg2A3Q7YC5Q/zZAHhz2NH2Efr1ToGjtp/aecen/eAETkI4+tza/RfYAAy7AXg+QDzEnw3A0dzlbRehX+8U8PrgHZ/2gxMYXUA6Cb0+0L4Nw+cC5g7xbxM75oxIhH69U8AbB+/4tB+cwOgC4hLwuAtAxCVU4j9u/L25p3X7CP16lw8vA+/4tB+cwOgC0jvMeX2gfRuGDwTMHeLfJnbMGZEI/XqngDcO3vFpPziB0QWkt5fVr+R4/aB9XYYas3sC5g7xrxs35slrvKP0650C3nh4x6f94ARmEJDeXtbrB+3rMtSv70U9iH/d2DFXXvu9kSj9evrxxsIzNm0nIDCDgPTe8k+wCRhmE/S4iNwVOHeIPxsAbx6ztI/Wr2cqWOxO1fWMTdsJCKREYTnXCwJdBPT2nLwd0O9ioLHRV/6Ri/9Jf8S/37hb8knPdUvq96Rj67OXl3U86k9GYDYB6e1l9Q5d+gldviPeflHQGGgs9ANTEe/556Yf8W8fc29O6al9bf3m9L0t97La9sfxYgQQ0GIBx10IQGAaAuTvaULZxhEE1IY7o0IAAhDwEiB/ewku3h4BLS4A3IcABIYlQP4eNnR9GI6A+ogDVkAAAhCwEiB/W4lR/xoBBHQNBwcQgAAEhiFA/h4mVH0aioD6jAtWQQACEMgRIH/nCFF+kQACuoiHQghAAALdEiB/dxuaMQxDQGPY2MeAAAAZY0lEQVTECSshAAEIbAmQv7dEODYRQEAmXFSGAAQg0A0B8nc3oRjTEAQ0ZtywGgIQgAD5Gw24CCAgFz4aQwACEGhGgPzdDP0cAyOgOeKIFxCAwHoEyN/rxTzUYwQUipPOIAABCFQjQP6uhnrOgRDQnHHFKwhAYH4C5O/5Y1zUQwRUFC+dQwACEChGgPxdDO0aHSOgNeKMlxCAwHwEyN/zxbSqRwioKm4GgwAEIBBGgPwdhnLNjhDQmnHHawhAYHwC5O/xY9jUAwTUFD+DQwACEDhMgPx9GB0NlQACQgcQgAAExiRA/h4zbt1YjYC6CQWGQAACEDARIH+bcFF5SwABbYlwDAEIQGAMAuTvMeLUrZUIqNvQYBgEIACBiwTI3xfxUJgjgIByhCiHAAQg0CcB8nefcRnGKgQ0TKgwFAIQgMA1AuTvazg4sBJAQFZi1IcABCDQBwHydx9xGNYKBDRs6DAcAhBYnAD5e3EBeN1HQF6CtIcABCDQhgD5uw33aUZFQNOEEkcgAIHFCJC/Fwt4tLsIKJoo/UEAAhCoQ4D8XYfztKMgoGlDi2MQgMDkBMjfkwe4tHsIqDRh+ocABCBQhgD5uwzXZXqdTUD3i8jDIvK0iLwY8GNHXj609//gFAyPM9Q5oHPhIRG5r0JWm23+1eZnDZF3bljHo/5kBGYR0E0ReVREXmHRd//Co1cTtD++YJdk97KI3BKRGwVy2ArzryS/oyHx6uXouLSbhMAMAtLk8xQLPws/GtilgSeDNwGrzb9ofp6lZIb87fGftk4CMwjoMRL/rsTvjTXt+3xlfyQujzjzxtXmK86/SH5XWVr/PxL7q22s41F/MgJXxXDk/9Y49D1HLvvPszAd0SBt7PHXy9n3BkzeVedfFD9vCLza945P+8EJjC4g/cCf1wfaw3BFDTwYkLtWnn8R/Lwh8OrWOz7tBycwuoCeYQPABggNHNLA7YDctfL8i+DnDcHo+dvrP+2dBEYX0Ask/0PJ3xt32o9/1eR5Z+7Q5ivPvwh+3hB456F3fNoPTmB0Aekk9PpAexiuqIHnAnLXyvMvgp83BF7desen/eAERhfQypcgvbGj/dobn4hL2CvPvwh+3uXDO4e949N+cAKjC0jvcOb1gfYwXFEDDwTkrpXnXwQ/bwi8uvWOT/vBCYwuIL29qX4lx+sH7WG4kgZ0ztwTkLtWnX9R/Lwh8GrWOz7tBycwg4D09qZeP2gPw5U0oF/fi3qsOP8i+Xni4NWsZ2zaTkBgBgHpvc2fYBPAJggN7NLA4yJyV2DuWm3+RfPzhGKG/O3xn7ZOArMISJOQ3p6TtwN4Je/V9KztdW7oK9fIxf+UflaYfyX5nThan71atY5H/ckIzCYgvb2p3qFLP6G78neUvXGl/RwbKZ0DOhf0A2sR7/nn0t9s8682vxzfbbl3nm7743gxAghosYDjLgQgMA0B8vc0oWzjCAJqw51RIQABCHgJkL+9BBdvj4AWFwDuQwACwxIgfw8buj4MR0B9xAErIAABCFgJkL+txKh/jQACuoaDAwhAAALDECB/DxOqPg1FQH3GBasgAAEI5AiQv3OEKL9IAAFdxEMhBCAAgW4JkL+7Dc0YhiGgMeKElRCAAAS2BMjfWyIcmwggIBMuKkMAAhDohgD5u5tQjGkIAhozblgNAQhAgPyNBlwEEJALH40hAAEINCNA/m6Gfo6BEdAcccQLCEBgPQLk7/ViHuoxAgrFSWcQgAAEqhEgf1dDPedACGjOuOIVBCAwPwHy9/wxLuohAiqKl84hAAEIFCNA/i6Gdo2OEdAaccZLCEBgPgLk7/liWtUjBFQVN4NBAAIQCCNA/g5DuWZHCGjNuOM1BCAwPgHy9/gxbOoBAmqKn8EhAAEIHCZA/j6MjoZKAAGhAwhAAAJjEiB/jxm3bqxGQN2EAkMgAAEImAiQv024qLwlgIC2RDiGAAQgMAYB8vcYcerWSgTUbWgwDAIQgMBFAuTvi3gozBFAQDlClEMAAhDokwD5u8+4DGMVAhomVBgKAQhA4BoB8vc1HBxYCSAgKzHqQwACEOiDAPm7jzgMawUCGjZ0GA4BCCxOgPy9uAC87iMgL0HaQwACEGhDgPzdhvs0oyKgaUKJIxCAwGIEyN+LBTzaXQQUTZT+IAABCNQhQP6uw3naURDQtKHFMQhAYHIC5O/JA1zaPQRUmjD9QwACEChDgPxdhusyvc4moPtF5GEReVpEXgz4sSMvn9btlYGyeEhE7qugavj7f2DrqmaIXyzPq2z3/F+bv3WK7vHhUh3reNSfjMAlcewp6wXHTRF5VEReYdE/+wuPL4vILRG5USBo8C+/UBG/8owv5byS/I9OyUv27ik7Oi7tJiGwRySX6vSAQRefp1j4zy782/g9GbwJgH/dhYn41eVdev54cujWNuuxZ2zaTkDAKpht/R4QPMbiv3vxP8XvkcDAwb/+gkT86jM/zR19juTvmYpXbTryv2ds2k5A4IhorrZpjUDfc+ayvz0Z6uXMewOCB387+6vz5+j/xK8N91O8ovh7p+DJnqPP3vFpPziBo8I5tWvtvn7g72QLzzYWDwYED/425pEaJX7t2GscI/h7p6BXT97xaT84gdEF9AwbgMMboNsB2oV/u0WI+LVjr3kzgr93Co6ev73+095JYHQBvcAG4PAG4HmndrQ5/NstQsSvHXvNmxH8vVNw9Pzt9Z/2TgKjC0gnodeHVds/59SONod/O/0Rv3bsNWdE8PdOQW/u8o5P+8EJjC4gLkEfT4IRlzDhf5y/d+4Rv3bsNXYR/L3Lh1dD3vFpPziB0QWkd7jz+rBq+wcCtAv/dvojfu3Ya86I4O+dgt7c5R2f9oMTGF1Aentb/UqO14/V2iuzewK0C/822iN+bbif8kQUf+8UPNlz9Nk7Pu0HJ3BUOKd2Pbivt7c92cPzPhb69b2oB/z3MY/UJvGrz/xq/CL5e+bhVZuO/O8Zm7YTEDgimqttekCg97Z/gk3A7k3Q4yJyV2Dg4F93MSJ+dXlfzXf6fzR/z1Tc2mY99oxN2wkIWAWzrd8LAl2E9PacvB1wPjkqG33lErn4n+IP//Pct3Pm6DHxK8/4UmxK8j/NI+vzJXv3lFnHo/5kBPaI5FKd3nDo7W31Dl36CV2+o/4aA2WhH1iKeM8/F2/4xy5SqmHiF8v0Uj7bltXmn5tf2/KtvdbjbX8cL0bAKpht/cVw4S4EIACBbghs87H1uBtHMKQNAatgtvXbWM2oEIAABCCwzcfWYwguTsAqmG39xfHhPgQgAIFmBLb52HrczHAG7oOAVTDb+n14gRUQgAAE1iOwzcfW4/WI4fE1AlbBbOtf64wDCEAAAhCoRmCbj63H1QxloD4JWAWzrd+nV1gFAQhAYH4C23xsPZ6fEB5eJGAVzLb+xc4phAAEIACBYgS2+dh6XMwwOh6DgFUw2/pjeImVEIAABOYjsM3H1uP5iOCRiYBVMNv6psGoDAEIQAACYQS2+dh6HGYIHY1JwCqYbf0xvcZqCEAAAuMT2OZj6/H4BPDARcAqmG191+A0hgAEIACBwwS2+dh6fHhgGs5BwCqYbf05KOAFBCAAgfEIbPOx9Xg8j7E4lIBVMNv6ocbQGQQgAAEI7CawzcfW490DUXFOAlbBbOvPSQWvIAABCPRPYJuPrcf9e4iFRQlYBbOtX9Q4OocABCAAgbMEtvnYeny2YwrWIGAVzLb+GpTwEgIQgEB/BLb52Hrcn0dYVJWAVTDb+lWNZTAIQAACEHidwDYfW49f74h/1iRgFcy2/prU8BoCEIBAewLbfGw9bu8BFjQlYBXMtn5T4xkcAhCAwMIEtvnYerwwOlxXAlbBbOtDEQIQgAAE2hDY5mPrcRurGbUbAlbBbOt34wiGQAACEFiMwDYfW48Xw4W7WwJWwWzrb/vjGAIQgAAE6hDY5mPrcR0rGaVbAlbBbOt36xiGQQACEJicwDYfW48nx4N7OQJWwWzr5/qnHAIQgAAEyhDY5mPrcRmr6HUYAlbBbOsP4yiGQgACEJiMwDYfW48nw4E7VgJWwWzrW8ejPgQgAAEIxBDY5mPrcYwV9DIsAatgtvWHdRzDIQABCAxOYJuPrceDu4/5XgJWwWzre8enPQQgAAEIHCOwzcfW42Oj0moaAlbBbOtPAwJHIAABCAxGYJuPrceDuYu50QSsgtnWj7aH/iAAAQhAYB+BbT62Hu8bhVrTErAKZlt/WjA4BgEIQKBzAtt8bD3u3D3MK03AKpht/dL20T8EIAABCKQJbPOx9TjdK2eXIWAVzLZ+b6DuF5GHReRpEXkx4MeOtv5ybPsBKY2BxuIhEbmvgliIvy0+OT2vHr/a/lunSC5+uXLreNSfjEBOILnyXnDcFJFHReQVFn33LzzmYn60/GURuSUiNwqIhvjHLvypGK8ev5L+H50SqThZzh0dl3aTELCIJVW3Bwya/J9i4e924d/q5sngTQDxL7/4X43h6vGL9t+TQ6/G5cj/nrFpOwGBI6K52qYHBI+x+A+z+J+080igcIh/3Q2AxnD1+EX675kKp/l09NkzNm0nIHBUOKd2rRHoe75c9q+/AJzif/RZL6feGyAe4t8m9qvHL8p/7xQ4Ov9O7bzj035wAichHH1u7b5+4O+o7bRry+7BAPEQ/3YxXD1+Ef57p4A3h3nHp/3gBEYX0DNsAIbdAN0OmDvEv90GYPX4RfjvnQKj52+v/7R3EhhdQC+wARh2A/C8U7vanPi32wCsHr8I/71TYPT87fWf9k4CowtIJ6HXB9q3YficU7vanPi3iZ3OmdXjF+G/dwp4c5d3fNoPTmB0AXEJuN0C4NVOxCVU4t8u/qvHL8J/7/LhnYPe8Wk/OIHRBaR3mPP6QPs2DB8ImDvEv03sdM6sHr8I/71TwJu7vOPTfnACowtIby+rX8nx+kH7ugw1ZvcEzB3iXzdup3myevyi/PdOgVM8jj57x6f94ASOCufUrgf39fayJ3t4HoOFfn0v6kH868d89fhF+u+ZB9585xmbthMQmEFAem/5J9gEDLMJelxE7gqcO8S/7gZg9fhF+++ZCjPkb4//tHUSmEVAugjo7Tl5O6DuYmDRj8ZGXzlFLv4n+RP/8nFfPX4l/T/p2PpsmX+putbxqD8ZgZQoLOd6w6G3l9U7dOkndPmOePlFIacVjYHGQj8wFfGef05vxD825qvHr7b/OX1vy3PzL1e+7Y/jxQjkBJIrXwwX7kIAAhDohkAuP+fKu3EEQ9oQyAkkV97GakaFAAQgAIFcfs6VQ3BxAjmB5MoXx4f7EIAABJoRyOXnXHkzwxm4DwI5geTK+/ACKyAAAQisRyCXn3Pl6xHD42sEcgLJlV/rjAMIQAACEKhGIJefc+XVDGWgPgnkBJIr79MrrIIABCAwP4Fcfs6Vz08IDy8SyAkkV36xcwohAAEIQKAYgVx+zpUXM4yOxyCQE0iufAwvsRICEIDAfARy+TlXPh8RPDIRyAkkV24ajMoQgAAEIBBGIJefc+VhhtDRmARyAsmVj+k1VkMAAhAYn0AuP+fKxyeABy4COYHkyl2D0xgCEIAABA4TyOXnXPnhgWk4B4GcQHLlc1DACwhAAALjEcjl51z5eB5jcSiBnEBy5aHG0BkEIAABCOwmkMvPufLdA1FxTgI5geTK56SCVxCAAAT6J5DLz7ny/j3EwqIEcgLJlRc1js4hAAEIQOAsgVx+zpWf7ZiCNQjkBJIrX4MSXkIAAhDoj0AuP+fK+/MIi6oSyAkkV17VWAaDAAQgAIHXCeTyc6789Y74Z00COYHkytekhtcQgAAE2hPI5edceXsPsKApgZxAcuVNjWdwCEAAAgsTyOXnXPnC6HBdCeQEkiuHIgQgAAEItCGQy8+58jZWM2o3BHICyZV34wiGQAACEFiMQC4/58oXw4W7WwI5geTKt/1xDAEIQAACdQjk8nOuvI6VjNItgZxAcuXdOoZhEIAABCYnkMvPufLJ8eBejkBOILnyXP+UQwACEIBAGQK5/JwrL2MVvQ5DICeQXPkwjmIoBCAAgckI5PJzrnwyHLhjJZATSK7cOh71IQABCEAghkAuP+fKY6ygl2EJ5ASSKx/WcQyHAAQgMDiBXH7OlQ/uPuZ7CeQEkiv3jk97CEAAAhA4RiCXn3Plx0al1TQEcgLJlU8DAkcgAAEIDEYgl59z5YO5i7nRBHICyZVH20N/EIAABCCwj0AuP+fK941CrWkJ5ASSK58WDI5BAAIQ6JxALj/nyjt3D/NKE8gJJFde2j76hwAEIACBNIFcfs6Vp3vl7DIEcgLJlS8DCkchAAEIdEYgl59z5Z25gzm1CeQEkiuvbS/jQQACEIDAawRy+TlXDsfFCeQEkitfHB/uQwACEGhGIJefc+XNDGfgPgjkBJIr78MLrIAABCCwHoFcfs6Vr0cMj68RyAkkV36tMw4gAAEIQKAagVx+zpVXM5SB+iSQE0iuvE+vsAoCEIDA/ARy+TlXPj8hPLxIICeQXPnFzimEAAQgAIFiBHL5OVdezDA6HoNATiC58jG8xEoIQAAC8xHI5edc+XxE8MhE4CURyYnkUvkN02hUhgAEIACBCAI3nbn7f0cYQR9jE/i6U0R3j+0+1kMAAhAYksDbnbn7q0N6jdGhBJ51iuidodbQGQQgAAEI7CHwg87c/aU9g1BnbgK3nSJ639x48A4CEIBAlwR+0pm7P9OlVxhVlcCnnCL6SFVrGQwCEIAABJTALzhz938BIwRuOUX0SRBCAAIQgEB1Ar/hzN0PVbeYAbsj8GGniL4iIm/ozisMggAEIDAvAc25X3Pm7g/NiwfP9hL4MaeI9CuCP7x3MOpBAAIQgICbwD8MyNvvcVtBB8MT+B4RecUppl8dngIOQAACEBiHwGPOnK05n69wjxPvopZ+1ikmvZfAm4taSOcQgAAEIKAE3iIi33Dm7D8AJQROBB50iknfBtBPpPKAAAQgAIGyBP5VQL7+12VNpPeRCHwgQFB/wVWAkUKOrRCAwIAE3ioifxWQr7l/y4DBL2Xym0TkmwGi+mgpA+kXAhCAAAREv7p36bdZ9pTp2wf6OwI8IPA6gY8HCOtbIvKu13vkHwhAAAIQiCLw90VEc+yeRf5SHf0AIQ8IXCPw7gBhqei+KCJvu9YzBxCAAAQg4CHw3SKi9+6/tLDvLfsRjyG0nZOA3ljiC0EC+20ReeOcmPAKAhCAQFUCmkv/c1Bu/hNu3FY1dkMN9jNBItOd6CcQ2lCxx1gIQKA/AvrC7N8G5uWf6s9FLOqFwF0i8ueBYvs1rgT0ElrsgAAEBiPwHSLybwLz8ZdF5MZgDDC3MoGfDxScXgnQtwP4TEDlIDIcBCAwNAHNmVGX/U+fDfi5oYlgfBUC+pVA/SDfSTQRz9of3w6oEj4GgQAEBiegn/aP+sDfKX9/nq/+Da6Kiua/N3gDoCLUr688LCJ6IwseEIAABCBwncB3vXr4SyLyUoH8+/7rQ3EEgcsEfquACHUj8Jci8ovcNfAyfEohAIFlCOjvqPxLEdGfVj+9Yo98/o/LkMTRMALfLyL6Iz+RQrzal96NSn9FUL+Tqp905QEBCEBgFQJ/Q0T0J331pjzeH/a5mle3/3/t1Q8SvmMVqPgZS+CDIvLtgpuAk1i/KiK/fucHhX5CRH5IRPRnirldZWw86Q0CEKhLQHOY5rK/KyKa2/6FiPyGiOjCfMp/pZ41d+uYPCBwmMADFYRaagLQb/kkA2MYo4E+NfDLh7M+DSFwh4DeG+D32AQU362TRPtMosSFuIyogadERHM3Dwi4Cegn9z/DJoBNABpAA2igew38dxHR3w7gAYEwAvpBkmeZ/N1P/hFfrWAzr7LRQIwG/lREvi8s69MRBK4QeCebADYAbALRABroUgO6+P/AlXzNvxAIJ/C9vB3Q5eTnFVTMKyg4wnFEDdwWkb8Vnu3pEAIJAvr+Eh8MJFGOmCixGd3OpgH9wB+/t5JYqDhVjoD+RrXetvIVLgdyRQANoAE0UF0D+j1/vb06n/Yvt87Rc4aA3iyo5B0DZ9ut4w+vQNEAGvBq4K9F5CczuZliCFQhoLcN/k1eAVR/BeBNIrRnIUID42lA7+3P7X2rLG0MYiHwHhH5YzYCbATQABpAA+Ea+IKIvM+SkKkLgdoE3vTqWwIfFpEvkwDCEwCv1sZ7tUbMiJlXA38mIj/Hb6PUXsoYz0Pghoj8tIh8no0AGwE0gAbQgFkDf/LqC6mf4kN+nmWItj0QeNedT6vW+AUs726b9rxiQwNooJUGviki/15E/jE/k97D0oUNkQT07YH3i8hHReQP+Qqh+RVBq6TEuCyIaKCMBvRr1H8gIr9y5/19fgI9csWhr64J3C0iPyoiH7pzheB3ROSPRORLIqJfc3mJy4ZsEtAAGhhYA5rDNJdpTtPcpjnuoTs5T3Of5kAeEIAABCAAAQhAAAIQgAAEIAABCEAAAhCAAAQgAAEIQAACEIAABCAAAQhAAAIQgAAEIAABCEAAAhCAAAQgAAEIQAACEIAABCAAAQhAAAIQgAAEIAABCEAAAhCAAAQgAAEIQAACEIAABCAAAQhAAAIQgAAEIAABCEAAAhCAAAQgAAEIQAACEIAABCAAAQhAAAIQgAAEIAABCEAAAhCAAAQgAAEIQAACEIAABCAAAQhAoBsC/w8J/nFpPx/GCQAAAABJRU5ErkJggg==;" vertex="1" parent="1">
          <mxGeometry x="327" y="447" width="36" height="36" as="geometry" />
        </mxCell>
        <mxCell id="3dCnoPwf7dHzqVoxYh37-40" value="&lt;b style=&quot;&quot;&gt;&lt;font color=&quot;#739e5a&quot;&gt;Green&lt;/font&gt;&lt;/b&gt; - Infrastructure&lt;div&gt;&lt;b&gt;Grey&lt;/b&gt; - Main Pipeline&lt;/div&gt;&lt;div&gt;&lt;font color=&quot;#a680b8&quot;&gt;&lt;b&gt;Purple&lt;/b&gt;&lt;/font&gt; - Foxglove&lt;/div&gt;" style="rounded=0;whiteSpace=wrap;html=1;" vertex="1" parent="1">
          <mxGeometry x="350" y="530" width="120" height="60" as="geometry" />
        </mxCell>
        <mxCell id="3dCnoPwf7dHzqVoxYh37-41" value="" style="shape=image;verticalLabelPosition=bottom;labelBackgroundColor=default;verticalAlign=top;aspect=fixed;imageAspect=0;image=https://cdn-icons-png.flaticon.com/512/6132/6132222.png;" vertex="1" parent="1">
          <mxGeometry x="566.4300000000001" y="250" width="41" height="41" as="geometry" />
        </mxCell>
        <mxCell id="3dCnoPwf7dHzqVoxYh37-43" value="" style="shape=image;verticalLabelPosition=bottom;labelBackgroundColor=default;verticalAlign=top;aspect=fixed;imageAspect=0;image=https://upload.wikimedia.org/wikipedia/commons/thumb/c/c3/Python-logo-notext.svg/1869px-Python-logo-notext.svg.png;" vertex="1" parent="1">
          <mxGeometry x="330" y="340.00000000000006" width="33.87" height="37.12" as="geometry" />
        </mxCell>
      </root>
    </mxGraphModel>
  </diagram>
</mxfile>
